<?xml version="1.0" standalone="no"?>
<!DOCTYPE svg PUBLIC "-//W3C//DTD SVG 20010904//EN"
 "http://www.w3.org/TR/2001/REC-SVG-20010904/DTD/svg10.dtd">
<svg version="1.0" xmlns="http://www.w3.org/2000/svg"
 width="1275.000000pt" height="800.000000pt" viewBox="0 0 1275.000000 800.000000"
 preserveAspectRatio="xMidYMid meet">
<metadata>
Created by potrace 1.16, written by Peter Selinger 2001-2019
</metadata>
<g transform="translate(0.000000,800.000000) scale(0.100000,-0.100000)"
fill="#000000" stroke="none">
<path d="M9683 7721 c-72 -6 -87 -11 -120 -37 -47 -38 -79 -93 -94 -161 -15
-64 -10 -72 71 -104 40 -16 60 -29 60 -41 0 -10 9 -18 23 -20 34 -5 35 -70 2
-123 -13 -22 -41 -74 -62 -115 -45 -92 -56 -194 -28 -254 18 -37 35 -48 35
-21 0 8 1 15 3 15 1 0 45 -9 97 -20 164 -34 384 -20 450 28 20 15 30 18 33 9
7 -20 56 33 69 76 9 29 9 56 0 110 -7 40 -17 131 -23 202 -16 204 -41 292 -99
359 -78 89 -188 114 -417 97z"/>
<path d="M2610 7477 c0 -8 18 -125 40 -259 22 -134 98 -651 169 -1150 154
-1073 213 -1457 287 -1868 31 -168 59 -323 62 -345 l8 -40 369 3 c204 1 1593
12 3087 24 1495 12 2721 19 2724 15 4 -3 1 -89 -7 -189 -20 -270 -18 -634 4
-783 61 -404 216 -1037 426 -1730 17 -55 31 -103 31 -107 0 -3 -13 -9 -30 -13
-16 -4 -30 -8 -30 -10 0 -4 42 -140 44 -142 1 -1 33 2 71 8 39 6 137 18 218
28 81 11 149 20 150 22 2 2 0 40 -3 84 l-5 80 -42 -3 c-38 -3 -42 -1 -47 25
-40 192 -146 825 -185 1103 -67 478 -87 756 -71 997 17 267 77 761 90 746 4
-4 13 -46 19 -93 7 -47 34 -244 61 -438 65 -463 101 -610 222 -907 47 -113
169 -366 226 -465 76 -134 165 -280 243 -396 l88 -131 -25 -13 c-13 -8 -24
-17 -24 -21 0 -4 25 -30 56 -58 52 -48 58 -51 78 -38 61 39 179 108 243 142
l73 37 -36 69 c-29 54 -41 68 -54 64 -45 -14 -312 680 -404 1050 -52 212 -73
328 -105 585 -58 461 -80 829 -81 1330 0 179 -5 357 -10 397 -11 85 -42 180
-75 233 -14 22 -22 46 -19 58 4 12 -5 37 -22 63 -40 64 -51 196 -35 449 6 107
15 208 19 224 l8 29 38 -51 c21 -29 43 -52 49 -52 11 0 77 91 77 106 0 3 38
64 86 135 l85 130 -38 71 c-49 93 -145 192 -198 206 -66 18 -304 33 -400 27
-418 -27 -471 -35 -650 -92 -105 -33 -113 -38 -170 -97 -34 -33 -76 -88 -95
-120 -18 -33 -35 -56 -37 -50 -6 21 -183 1048 -183 1065 0 15 -8 19 -32 19
-18 1 -206 5 -418 11 -212 5 -1541 14 -2955 20 -1413 5 -2659 12 -2767 15
-172 5 -198 4 -198 -9z m1260 -37 c597 -5 1981 -17 3075 -26 1095 -9 1991 -17
1992 -17 3 -3 185 -1051 190 -1097 3 -25 3 -43 0 -40 -6 5 -58 294 -158 871
l-42 247 -181 6 c-100 3 -527 8 -951 10 -423 3 -1745 13 -2937 22 -1192 10
-2171 15 -2174 11 -4 -3 1 -53 10 -109 8 -57 29 -191 46 -298 17 -107 89 -604
160 -1105 115 -806 237 -1583 303 -1925 l22 -115 580 3 c553 3 975 6 4168 33
763 7 1390 9 1394 5 3 -3 4 -8 2 -10 -2 -1 -731 -9 -1619 -15 -888 -7 -2270
-19 -3070 -26 -800 -7 -1458 -9 -1463 -5 -24 21 -171 925 -322 1987 -116 808
-203 1396 -226 1517 -16 87 -17 86 54 86 34 0 550 -4 1147 -10z m1215 -160 c0
-9 -14 -17 -39 -21 -140 -23 -150 -262 -16 -383 38 -34 85 -55 97 -43 5 5 -10
108 -24 165 -5 22 -5 22 116 22 l121 0 0 33 c-1 47 -33 111 -71 137 -43 31
-134 39 -179 16 -18 -8 -36 -13 -41 -10 -20 12 -7 32 30 49 61 27 149 18 203
-22 53 -38 88 -102 88 -158 l0 -42 368 -6 c202 -4 478 -7 614 -7 226 0 247 -1
252 -17 2 -10 19 -94 36 -188 52 -283 192 -1030 193 -1031 1 -1 31 -16 67 -35
140 -74 253 -226 280 -377 25 -138 -25 -289 -126 -382 l-57 -51 57 -281 c30
-155 54 -283 53 -285 -3 -2 -1247 -22 -1433 -23 l-62 0 -111 563 c-122 620
-211 1084 -296 1547 -31 168 -58 312 -60 320 -3 9 -25 21 -50 28 -124 33 -228
245 -185 376 23 72 92 129 150 123 14 -1 25 -8 25 -17z m-579 -224 c3 -15 14
-26 27 -28 28 -4 34 -28 7 -28 -28 0 -35 44 96 -640 187 -979 378 -1922 392
-1936 7 -8 12 -18 10 -24 -3 -10 -460 -18 -1085 -19 l-383 -1 0 -25 c0 -32
-18 -32 -26 0 -4 18 -13 25 -30 25 -15 0 -24 6 -24 15 0 8 9 15 20 15 11 0 20
3 20 6 0 4 -54 275 -120 603 -109 546 -269 1371 -351 1816 -19 104 -38 183
-46 188 -19 12 -16 35 5 39 9 2 37 1 62 -3 38 -7 1093 -29 1323 -29 75 0 77 0
77 25 0 32 18 32 26 1z m3558 -86 c465 -7 632 -13 637 -21 4 -7 10 -33 14 -58
13 -86 184 -994 189 -998 5 -6 134 167 186 250 l43 68 59 -88 c32 -48 65 -101
73 -118 8 -16 25 -43 38 -58 l22 -28 42 50 41 51 6 -48 c4 -26 28 -155 53
-287 28 -148 45 -264 44 -302 -1 -46 2 -64 14 -70 13 -8 11 -38 -20 -253 -19
-135 -35 -258 -36 -275 0 -26 -1 -28 -10 -10 -8 18 -140 709 -200 1053 -13 72
-27 132 -32 132 -4 0 -12 -10 -18 -23 -11 -25 -13 -17 147 -866 52 -277 92
-506 89 -509 -2 -3 -7 1 -9 9 -5 12 -186 979 -232 1238 l-17 94 -35 -39 c-19
-21 -72 -81 -119 -132 l-84 -92 120 -609 c67 -335 121 -613 121 -619 0 -6
-212 -12 -587 -16 -324 -3 -652 -8 -730 -10 l-141 -4 -131 662 c-138 698 -214
1096 -305 1596 -31 168 -58 313 -60 323 -5 21 -47 20 828 7z m-2964 -1026
c123 -53 145 -67 137 -88 -7 -19 -153 -93 -163 -83 -14 14 7 37 57 62 33 17
48 30 42 36 -6 6 -50 27 -99 48 -53 23 -90 45 -92 55 -2 9 0 16 5 16 4 0 55
-20 113 -46z m2102 -10 c57 -26 109 -52 117 -60 20 -19 5 -33 -78 -74 -53 -25
-74 -31 -82 -23 -9 9 0 19 36 40 86 51 87 45 -24 93 -56 24 -101 49 -101 57 0
21 22 16 132 -33z"/>
<path d="M5140 6979 c0 -5 5 -42 12 -81 l11 -70 30 6 c43 9 94 51 117 96 11
22 20 44 20 50 0 6 -36 10 -95 10 -60 0 -95 -4 -95 -11z"/>
<path d="M5351 6936 c-29 -71 -82 -124 -138 -139 -35 -9 -42 -14 -38 -31 3
-12 30 -156 61 -321 146 -793 393 -2056 404 -2068 8 -9 1419 9 1428 17 3 3
-14 101 -37 218 -68 342 -58 308 -88 297 -14 -5 -47 -10 -74 -12 -58 -2 -58 3
-25 -155 13 -62 21 -114 17 -116 -3 -2 -255 -6 -560 -7 l-554 -4 -83 420 c-45
231 -89 455 -97 498 l-15 77 422 0 421 0 23 50 c27 60 82 103 155 125 58 17
146 20 195 6 33 -10 33 -9 28 17 -6 29 -162 862 -197 1055 l-21 117 -213 0
c-116 0 -387 3 -601 7 l-389 6 -24 -57z m1049 -91 c81 -42 77 -165 -5 -165
-70 0 -121 79 -90 140 22 42 48 49 95 25z m85 -257 c3 -3 28 -126 55 -274 28
-148 52 -279 55 -292 l5 -22 -562 2 -562 3 -52 280 c-29 154 -53 288 -53 299
-1 18 16 18 554 14 305 -2 557 -7 560 -10z m-227 -700 c-4 -10 -90 -14 -376
-16 -327 -2 -372 0 -372 13 0 13 47 15 376 15 296 0 375 -3 372 -12z m-140
-110 c-4 -10 -71 -13 -293 -13 -222 0 -289 3 -292 13 -4 9 59 12 292 12 233 0
296 -3 293 -12z"/>
<path d="M5590 6504 c74 -37 194 -94 265 -128 l130 -62 214 120 213 121 -128
6 c-71 4 -286 7 -479 7 l-350 1 135 -65z"/>
<path d="M5406 6543 c2 -10 24 -125 49 -257 24 -131 46 -240 48 -243 3 -2 105
54 227 124 l222 128 -272 133 c-149 72 -273 132 -275 132 -2 0 -1 -8 1 -17z"/>
<path d="M6245 6429 c-115 -66 -213 -123 -217 -127 -4 -4 113 -64 259 -134
147 -70 268 -126 270 -124 2 2 -16 113 -41 246 -26 134 -46 247 -46 251 0 5
-3 9 -7 8 -5 0 -102 -54 -218 -120z"/>
<path d="M5780 6164 c-107 -63 -202 -119 -210 -124 -10 -6 160 -10 462 -12
262 -2 474 0 470 3 -11 10 -515 249 -521 248 -3 -1 -94 -53 -201 -115z"/>
<path d="M6576 5746 c-22 -8 -51 -23 -65 -34 -27 -19 -71 -78 -71 -93 0 -5 53
-9 118 -9 l117 0 64 -333 c35 -182 67 -336 71 -341 11 -11 113 2 134 17 14 11
9 49 -59 396 -41 212 -79 389 -85 395 -17 17 -180 18 -224 2z"/>
<path d="M6843 5714 c3 -11 36 -176 73 -369 36 -192 70 -354 74 -358 11 -12
64 37 98 91 74 115 83 275 23 397 -43 87 -133 183 -212 225 -52 27 -60 30 -56
14z"/>
<path d="M5910 5360 c162 -121 297 -219 301 -218 14 5 209 218 209 227 0 6 -7
36 -15 68 -8 31 -15 77 -15 100 l0 43 -387 0 -386 0 293 -220z"/>
<path d="M6425 5559 c-8 -23 1 -98 16 -137 l10 -25 25 24 c14 13 53 54 86 92
l60 67 -95 0 c-88 0 -96 -2 -102 -21z"/>
<path d="M5592 5548 c3 -7 43 -208 89 -445 46 -238 87 -433 91 -433 3 0 99
100 211 222 l205 222 -295 223 c-163 123 -298 223 -300 223 -3 0 -3 -6 -1 -12z"/>
<path d="M6553 5462 l-91 -98 31 -58 c19 -36 59 -84 106 -127 73 -68 84 -88
40 -74 -32 11 -141 125 -169 178 -14 26 -28 47 -31 47 -10 0 -199 -200 -199
-210 0 -7 574 -440 583 -440 8 0 -38 209 -48 218 -5 5 -27 15 -48 22 -49 15
-127 75 -171 130 -38 48 -45 70 -21 70 8 0 15 -4 15 -9 0 -24 96 -113 152
-140 34 -17 63 -29 66 -26 6 5 -111 615 -118 615 -3 0 -46 -44 -97 -98z"/>
<path d="M6004 4874 c-109 -119 -200 -220 -202 -223 -2 -5 896 -4 973 2 26 2
-4 27 -262 220 -161 119 -296 217 -301 217 -4 0 -98 -97 -208 -216z"/>
<path d="M3061 6979 c5 -24 47 -249 94 -499 104 -551 288 -1497 356 -1823 27
-131 49 -240 49 -242 0 -3 1423 6 1427 9 2 1 -49 261 -113 577 -100 501 -279
1426 -359 1855 l-27 141 -471 6 c-260 4 -583 10 -719 14 l-246 6 9 -44z m1282
-86 c51 -26 58 -93 15 -140 -51 -54 -138 2 -138 87 0 74 44 93 123 53z m-1027
-293 c7 -7 186 -8 565 -1 305 5 558 6 562 2 8 -8 91 -419 103 -512 4 -28 13
-56 20 -64 17 -17 18 -35 2 -35 -7 0 -238 -3 -513 -7 -275 -4 -536 -7 -580 -7
l-80 1 -12 59 c-6 32 -28 160 -48 284 -20 124 -40 233 -45 242 -10 17 -4 48 9
48 4 0 12 -5 17 -10z m1029 -761 c4 -6 5 -13 2 -16 -8 -8 -884 -26 -903 -19
-51 20 23 28 317 35 492 12 577 12 584 0z m-827 -274 c7 -14 56 -15 463 -6
250 6 500 13 556 16 56 3 104 2 106 -2 3 -5 47 -215 97 -468 56 -281 98 -464
106 -471 18 -14 18 -22 -2 -41 -13 -13 -19 -14 -39 -3 -26 14 -46 14 -758 -11
-240 -9 -361 -9 -367 -3 -12 12 -78 342 -141 694 -22 129 -45 240 -49 245 -10
12 -1 65 11 65 4 0 12 -7 17 -15z"/>
<path d="M3621 6560 l-243 -5 143 -67 c79 -36 199 -92 267 -124 109 -51 126
-57 144 -45 12 7 113 67 226 132 l206 119 -250 -2 c-137 -1 -359 -5 -493 -8z"/>
<path d="M4276 6480 c-76 -44 -181 -105 -234 -136 l-96 -57 95 -44 c278 -131
461 -213 475 -213 12 0 14 7 10 28 -3 15 -24 124 -46 242 -47 248 -50 260 -59
260 -3 0 -68 -36 -145 -80z"/>
<path d="M3330 6524 c0 -14 30 -198 77 -471 3 -18 8 -33 12 -33 14 0 443 257
443 266 1 8 -505 252 -524 253 -5 1 -8 -6 -8 -15z"/>
<path d="M3775 6186 c-77 -46 -176 -104 -220 -130 l-80 -48 325 6 c179 3 394
6 479 6 85 0 151 3 148 6 -5 6 -466 225 -502 240 -5 2 -73 -34 -150 -80z"/>
<path d="M4075 5529 c-132 -3 -305 -7 -385 -8 -140 -2 -144 -3 -120 -19 14 -9
141 -100 283 -202 142 -102 266 -191 275 -197 16 -11 44 14 238 212 l219 225
-135 -2 c-74 -1 -243 -5 -375 -9z"/>
<path d="M4396 5299 c-119 -122 -216 -224 -216 -228 0 -8 409 -302 538 -386
40 -27 75 -45 79 -41 4 4 -28 181 -71 394 -99 494 -96 482 -106 482 -4 0 -105
-99 -224 -221z"/>
<path d="M3530 5487 c0 -33 146 -812 158 -841 7 -15 42 17 220 199 117 120
212 221 212 224 0 3 -111 85 -248 182 -266 189 -342 242 -342 236z"/>
<path d="M3939 4828 l-214 -221 290 8 c160 4 387 11 505 14 l214 6 -234 167
c-129 91 -260 184 -291 207 l-56 40 -214 -221z"/>
<path d="M8410 6823 c-64 -81 38 -214 135 -177 8 4 23 20 31 36 51 99 -99 226
-166 141z"/>
<path d="M7493 6554 c3 -10 27 -131 52 -269 25 -137 48 -258 51 -267 5 -17 33
-18 410 -18 352 0 404 2 404 15 0 13 -50 15 -389 15 -299 0 -391 3 -399 13
-11 13 -92 428 -92 471 l0 26 509 0 c418 0 512 -2 523 -14 16 -15 102 -460 94
-482 -4 -10 -21 -14 -57 -14 -45 0 -50 -2 -39 -15 8 -10 31 -15 71 -15 50 0
59 3 59 18 0 26 -96 531 -102 538 -3 2 -252 8 -553 11 -536 6 -547 6 -542 -13z"/>
<path d="M7540 6519 c0 -34 83 -455 92 -466 8 -10 98 -13 386 -13 l375 0 -21
23 c-12 12 -37 62 -56 109 -20 48 -45 106 -56 128 l-20 40 66 0 c60 0 71 -3
118 -37 28 -20 52 -37 53 -37 1 -1 6 -40 11 -87 13 -116 29 -138 100 -139 33
0 54 5 57 13 5 14 -78 454 -88 463 -3 4 -234 9 -512 12 -428 4 -505 3 -505 -9z"/>
<path d="M7680 5588 c0 -7 41 -222 91 -477 l92 -464 543 5 c299 2 545 6 548 9
2 2 -38 213 -88 469 l-93 465 -546 3 c-434 2 -547 0 -547 -10z"/>
<path d="M11225 1333 c-86 -93 -110 -110 -129 -93 -21 17 -60 8 -64 -14 -2
-10 2 -23 10 -27 11 -8 11 -10 0 -18 -8 -4 -12 -17 -10 -27 3 -14 12 -19 35
-18 l30 2 -8 -42 c-5 -22 -25 -72 -44 -109 -40 -78 -42 -92 -16 -107 49 -26
63 -16 260 180 109 108 191 197 191 208 0 17 -157 143 -176 141 -5 0 -40 -35
-79 -76z"/>
<path d="M9834 695 c6 -23 3 -25 -24 -25 -23 0 -30 -4 -30 -20 0 -19 9 -23 65
-33 30 -5 -71 -60 -158 -87 -40 -12 -78 -23 -84 -25 -19 -6 -16 -50 5 -68 16
-15 52 -17 305 -17 190 0 288 4 292 11 6 8 -7 132 -20 204 -4 19 -10 20 -109
17 -129 -5 -151 0 -171 38 -12 23 -22 30 -46 30 -28 0 -31 -2 -25 -25z"/>
</g>
</svg>
